<svg width="50" height="50" viewBox="0 0 50 50" fill="none" xmlns="http://www.w3.org/2000/svg">
<path fill-rule="evenodd" clip-rule="evenodd" d="M22.3785 5.55566H26.9617L27.081 9.37496H31.5448V13.9581H27.2242L27.4341 19.147C27.5179 19.0483 27.6041 18.9516 27.693 18.8571C31.8661 14.4218 38.0534 12.0616 42.6208 15.8678C47.2039 19.687 47.2039 28.4714 40.8935 33.552C37.3188 36.4299 34.117 39.2043 34.2747 43.2621L40.6954 44.1305V49.8595H8.64474V44.1305L15.0654 43.2621C15.2232 39.2043 12.0214 36.4299 8.4467 33.552C2.13625 28.4714 2.13625 19.687 6.7194 15.8678C11.2868 12.0616 17.4741 14.4218 21.6472 18.8571C21.736 18.9516 21.8223 19.0483 21.906 19.147L22.1159 13.9581H17.7954V9.37496H22.2592L22.3785 5.55566ZM18.0612 23.1039C20.862 27.6916 21.2327 33.0546 21.2327 35.3868C19.8289 35.3893 14.5366 33.0611 11.7346 29.2388C9.7174 26.4871 9.19141 22.4044 10.9206 20.8195C12.6498 19.2345 16.3107 20.2366 18.0612 23.1039ZM31.279 23.1039C28.4781 27.6916 28.1074 33.0546 28.1074 35.3868C29.5113 35.3893 34.8036 33.0611 37.6055 29.2388C39.6228 26.4871 40.1488 22.4044 38.4195 20.8195C36.6903 19.2345 33.0295 20.2366 31.279 23.1039Z" fill="#CA9E41"/>
</svg>
