<svg width="25" height="25" viewBox="0 0 25 25" fill="none" xmlns="http://www.w3.org/2000/svg">
<path d="M9.78275 6.81772C10.4988 6.54224 11.007 5.84782 11.007 5.03472C11.007 3.98001 10.1519 3.125 9.09723 3.125C8.04253 3.125 7.18751 3.98001 7.18751 5.03472C7.18751 6.00939 7.91767 6.81352 8.86084 6.92996L8.00918 13.8194L3.90363 10.2536C4.27903 9.9049 4.5139 9.40697 4.5139 8.85417C4.5139 7.79946 3.65889 6.94445 2.60418 6.94445C1.54947 6.94445 0.694458 7.79946 0.694458 8.85417C0.694458 9.90888 1.54947 10.7639 2.60418 10.7639C2.78985 10.7639 2.96933 10.7374 3.13904 10.688L5.27779 18.0208L7.48949 21.64L5.27779 22.0312V24.8958L19.8211 24.8958V22.0312L17.581 21.6384L19.7917 18.0208L21.9304 10.688C22.1001 10.7374 22.2796 10.7639 22.4653 10.7639C23.52 10.7639 24.375 9.90888 24.375 8.85417C24.375 7.79946 23.52 6.94445 22.4653 6.94445C21.4106 6.94445 20.5556 7.79946 20.5556 8.85417C20.5556 9.40697 20.7904 9.9049 21.1658 10.2536L17.0603 13.8194L16.2086 6.92996C17.1518 6.81352 17.882 6.00939 17.882 5.03472C17.882 3.98001 17.0269 3.125 15.9722 3.125C14.9175 3.125 14.0625 3.98001 14.0625 5.03472C14.0625 5.84782 14.5707 6.54224 15.2867 6.81772L12.5347 13.0556L9.78275 6.81772Z" fill="#F8F1C1"/>
</svg>
