<svg width="25" height="26" viewBox="0 0 25 26" fill="none" xmlns="http://www.w3.org/2000/svg">
<path fill-rule="evenodd" clip-rule="evenodd" d="M10.26 7.14971L13.7107 3.125C14.2102 4.07329 14.6945 5.74695 13.9983 6.95516C14.3362 6.98524 14.6591 7.0424 14.9089 7.14265C16.5026 7.78219 18.2512 9.4345 19.1106 12.8723C19.3595 13.8677 19.8074 14.3444 20.3398 14.911C20.8419 15.4454 21.4192 16.0598 21.9754 17.265C23.1214 19.7478 20.0288 22.2307 17.7737 19.9756C16.5059 18.7078 15.3977 18.1844 14.4673 17.745C13.1281 17.1125 12.1573 16.654 11.6089 14.4002C11.348 15.4515 11.4523 17.9326 13.9571 19.4464C16.4619 20.9603 16.9837 24.1493 16.9315 25.0955H2.68571C2.68571 16.1126 3.875 8.35152 10.26 7.14971Z" fill="#251E12"/>
</svg>
