<svg width="50" height="50" viewBox="0 0 50 50" fill="none" xmlns="http://www.w3.org/2000/svg">
<path d="M19.5655 13.6354C20.9976 13.0845 22.0139 11.6956 22.0139 10.0694C22.0139 7.96002 20.3039 6.25 18.1945 6.25C16.0851 6.25 14.375 7.96002 14.375 10.0694C14.375 12.0188 15.8353 13.627 17.7217 13.8599L16.0184 27.6389L7.80726 20.5073C8.55806 19.8098 9.0278 18.8139 9.0278 17.7083C9.0278 15.5989 7.31778 13.8889 5.20836 13.8889C3.09894 13.8889 1.38892 15.5989 1.38892 17.7083C1.38892 19.8178 3.09894 21.5278 5.20836 21.5278C5.57969 21.5278 5.93865 21.4748 6.27808 21.376L10.5556 36.0417L14.979 43.28L10.5556 44.0625V49.7917L39.6421 49.7917V44.0625L35.1619 43.2767L39.5834 36.0417L43.8609 21.376C44.2003 21.4748 44.5592 21.5278 44.9306 21.5278C47.04 21.5278 48.75 19.8178 48.75 17.7083C48.75 15.5989 47.04 13.8889 44.9306 13.8889C42.8212 13.8889 41.1111 15.5989 41.1111 17.7083C41.1111 18.8139 41.5809 19.8098 42.3317 20.5073L34.1206 27.6389L32.4173 13.8599C34.3036 13.627 35.7639 12.0188 35.7639 10.0694C35.7639 7.96002 34.0539 6.25 31.9445 6.25C29.8351 6.25 28.125 7.96002 28.125 10.0694C28.125 11.6956 29.1413 13.0845 30.5734 13.6354L25.0695 26.1111L19.5655 13.6354Z" fill="#CA9E41"/>
</svg>
