<svg width="25" height="25" viewBox="0 0 25 25" fill="none" xmlns="http://www.w3.org/2000/svg">
<path d="M15.2173 6.81772C14.5012 6.54224 13.993 5.84782 13.993 5.03472C13.993 3.98001 14.8481 3.125 15.9028 3.125C16.9575 3.125 17.8125 3.98001 17.8125 5.03472C17.8125 6.00939 17.0823 6.81352 16.1392 6.92996L16.9908 13.8194L21.0964 10.2536C20.721 9.9049 20.4861 9.40697 20.4861 8.85417C20.4861 7.79946 21.3411 6.94445 22.3958 6.94445C23.4505 6.94445 24.3055 7.79946 24.3055 8.85417C24.3055 9.90888 23.4505 10.7639 22.3958 10.7639C22.2102 10.7639 22.0307 10.7374 21.861 10.688L19.7222 18.0208L17.5105 21.64L19.7222 22.0312V24.8958L5.17894 24.8958V22.0312L7.41904 21.6384L5.20832 18.0208L3.06957 10.688C2.89986 10.7374 2.72038 10.7639 2.53471 10.7639C1.48 10.7639 0.624988 9.90888 0.624988 8.85417C0.624988 7.79946 1.48 6.94445 2.53471 6.94445C3.58942 6.94445 4.44443 7.79946 4.44443 8.85417C4.44443 9.40697 4.20956 9.9049 3.83416 10.2536L7.93971 13.8194L8.79137 6.92996C7.8482 6.81352 7.11804 6.00939 7.11804 5.03472C7.11804 3.98001 7.97306 3.125 9.02777 3.125C10.0825 3.125 10.9375 3.98001 10.9375 5.03472C10.9375 5.84782 10.4293 6.54224 9.71328 6.81772L12.4653 13.0556L15.2173 6.81772Z" fill="#251E12"/>
</svg>
