<svg width="50" height="51" viewBox="0 0 50 51" fill="none" xmlns="http://www.w3.org/2000/svg">
<path d="M32.6422 17.9826C32.6422 20.177 31.708 22.1532 30.2156 23.5353L34.0608 26.2495V31.2234H30.2965C30.478 33.5289 31.9573 35.8363 33.8715 37.8489C35.9029 39.9848 38.3469 41.7074 39.97 42.6349L40.2083 42.771V50.1387H10.4166V42.771L10.6549 42.6349C12.278 41.7074 14.722 39.9848 16.7535 37.8489C18.6676 35.8363 20.1469 33.5289 20.3284 31.2234H16.5641V26.2495L20.1453 23.7216C18.5317 22.3341 17.5099 20.2777 17.5099 17.9826C17.5099 13.804 20.8974 10.4165 25.076 10.4165C29.2547 10.4165 32.6422 13.804 32.6422 17.9826Z" fill="#CA9E41"/>
</svg>
