<svg width="22" height="23" viewBox="0 0 22 23" fill="none" xmlns="http://www.w3.org/2000/svg">
<path fill-rule="evenodd" clip-rule="evenodd" d="M10.1893 0.777832H12.4808L12.5405 2.68748H14.7724V4.97905H12.6121L12.7171 7.57349C12.7589 7.52416 12.8021 7.47579 12.8465 7.42855C14.933 5.21092 18.0267 4.03081 20.3104 5.93388C22.602 7.84352 22.602 12.2357 19.4467 14.776C17.6594 16.215 16.0585 17.6022 16.1374 19.6311L19.3477 20.0653V22.9297H3.32237V20.0653L6.53272 19.6311C6.6116 17.6022 5.01068 16.215 3.22335 14.776C0.0681267 12.2357 0.0681267 7.84352 2.3597 5.93388C4.64339 4.03081 7.73703 5.21092 9.82358 7.42855C9.86802 7.47579 9.91115 7.52416 9.95302 7.57349L10.058 4.97905H7.89768V2.68748H10.1296L10.1893 0.777832ZM8.0306 9.55195C9.43101 11.8458 9.61636 14.5273 9.61636 15.6934C8.91443 15.6947 6.2683 14.5305 4.86731 12.6194C3.8587 11.2435 3.5957 9.20222 4.46031 8.40973C5.32492 7.61724 7.15534 8.11829 8.0306 9.55195ZM14.6395 9.55195C13.2391 11.8458 13.0537 14.5273 13.0537 15.6934C13.7557 15.6947 16.4018 14.5305 17.8028 12.6194C18.8114 11.2435 19.0744 9.20222 18.2098 8.40973C17.3452 7.61724 15.5147 8.11829 14.6395 9.55195Z" fill="#F8F1C1"/>
</svg>
