<svg width="21" height="23" viewBox="0 0 21 23" fill="none" xmlns="http://www.w3.org/2000/svg">
<path fill-rule="evenodd" clip-rule="evenodd" d="M12.74 4.14971L9.28928 0.125C8.78978 1.07329 8.30552 2.74695 9.00174 3.95516C8.66382 3.98524 8.34088 4.0424 8.09109 4.14265C6.49744 4.78219 4.74881 6.4345 3.88937 9.87227C3.64051 10.8677 3.1926 11.3444 2.66025 11.911C2.15809 12.4454 1.5808 13.0598 1.02456 14.265C-0.121365 16.7478 2.97122 19.2307 5.22628 16.9756C6.49411 15.7078 7.60231 15.1844 8.53272 14.745C9.87186 14.1125 10.8427 13.654 11.3911 11.4002C11.652 12.4515 11.5477 14.9326 9.0429 16.4464C6.53815 17.9603 6.01632 21.1493 6.06851 22.0955H20.3143C20.3143 13.1126 19.125 5.35152 12.74 4.14971Z" fill="#F8F1C1"/>
</svg>
