<svg xmlns="http://www.w3.org/2000/svg" width="200" height="380" fill="none" viewBox="0 0 200 380">
  <path fill="#CA9E41" d="M111.093 233.074H87.869c0-42.644 12.934-85.217 41.549-116.379a36.682 36.682 0 0 0 7.132-21.793c0-20.35-16.496-36.846-36.846-36.846-20.349 0-36.845 16.496-36.845 36.846 0 10.039 4.015 19.141 10.528 25.787C50.37 137.097 7.59 181.079 7.59 236.144c0 55.571 43.569 78.069 66.425 82.688l-84.848 15.01v43.545h221.075v-43.545l-86.86-15.234c23.115-5.088 65.367-27.739 65.367-82.464 0-35.832-16.692-67.774-37.014-90.998-22.317 17.418-40.642 58.06-40.642 87.928Z"/>
</svg>
