<svg xmlns="http://www.w3.org/2000/svg" width="200" height="382" fill="none" viewBox="0 0 200 382">
  <path fill="#CA9E41" d="M158.081 136.669c0 16.678-7.1 31.697-18.442 42.2l29.224 20.629v37.801h-28.609c1.379 17.522 12.622 35.058 27.17 50.354 15.438 16.233 34.013 29.325 46.349 36.374l1.81 1.034v55.995H-10.833v-55.995l1.81-1.034c12.336-7.049 30.91-20.141 46.35-36.374 14.547-15.296 25.79-32.832 27.17-50.354h-28.61v-37.801l27.217-19.212c-12.262-10.546-20.029-26.174-20.029-43.617 0-31.757 25.745-57.502 57.503-57.502s57.503 25.745 57.503 57.502Z"/>
</svg>
