<svg width="25" height="26" viewBox="0 0 25 26" fill="none" xmlns="http://www.w3.org/2000/svg">
<path d="M8.67886 8.99157C8.67886 10.0888 9.14595 11.0769 9.89214 11.7679L7.96954 13.125V15.6119H9.85169C9.76092 16.7647 9.02129 17.9184 8.06421 18.9247C7.0485 19.9926 5.82648 20.8539 5.01493 21.3177L4.89579 21.3858V25.0696H19.7916V21.3858L19.6725 21.3177C18.8609 20.8539 17.6389 19.9926 16.6232 18.9247C15.6661 17.9184 14.9265 16.7647 14.8357 15.6119H16.7179V13.125L14.9273 11.8611C15.7341 11.1673 16.245 10.1391 16.245 8.99157C16.245 6.90223 14.5513 5.2085 12.4619 5.2085C10.3726 5.2085 8.67886 6.90223 8.67886 8.99157Z" fill="#251E12"/>
</svg>
