<svg width="25" height="25" viewBox="0 0 25 25" fill="none" xmlns="http://www.w3.org/2000/svg">
<path d="M11.7701 15.3337H13.298C13.298 12.5281 12.4471 9.72731 10.5646 7.67716C10.2696 7.27562 10.0953 6.77987 10.0953 6.24341C10.0953 4.90463 11.1806 3.81934 12.5194 3.81934C13.8582 3.81934 14.9435 4.90463 14.9435 6.24341C14.9435 6.90392 14.6793 7.50274 14.2508 7.93996C15.7651 9.01945 18.5796 11.913 18.5796 15.5357C18.5796 19.1917 15.7132 20.6718 14.2095 20.9756L19.7916 21.9632V24.828L5.24718 24.828V21.9632L10.9617 20.9609C9.44097 20.6262 6.66122 19.136 6.66122 15.5357C6.66122 13.1783 7.7594 11.0769 9.09632 9.54897C10.5646 10.6949 11.7701 13.3687 11.7701 15.3337Z" fill="#251E12"/>
</svg>
