<svg width="25" height="25" viewBox="0 0 25 25" fill="none" xmlns="http://www.w3.org/2000/svg">
<path fill-rule="evenodd" clip-rule="evenodd" d="M13.8107 2.77783H11.5192L11.4595 4.68748H9.22759V6.97905H11.3879L11.2829 9.57349C11.2411 9.52416 11.1979 9.47579 11.1535 9.42855C9.06695 7.21092 5.9733 6.03081 3.68962 7.93388C1.39804 9.84352 1.39804 14.2357 4.55327 16.776C6.3406 18.215 7.94151 19.6022 7.86263 21.6311L4.65229 22.0653V24.9297H20.6776V22.0653L17.4673 21.6311C17.3884 19.6022 18.9893 18.215 20.7766 16.776C23.9319 14.2357 23.9319 9.84352 21.6403 7.93388C19.3566 6.03081 16.263 7.21092 14.1764 9.42855C14.132 9.47579 14.0889 9.52416 14.047 9.57349L13.942 6.97905H16.1023V4.68748H13.8704L13.8107 2.77783ZM15.9694 11.5519C14.569 13.8458 14.3836 16.5273 14.3836 17.6934C15.0856 17.6947 17.7317 16.5305 19.1327 14.6194C20.1413 13.2435 20.4043 11.2022 19.5397 10.4097C18.6751 9.61724 16.8447 10.1183 15.9694 11.5519ZM9.36051 11.5519C10.7609 13.8458 10.9463 16.5273 10.9463 17.6934C10.2443 17.6947 7.59822 16.5305 6.19723 14.6194C5.18862 13.2435 4.92562 11.2022 5.79023 10.4097C6.65484 9.61724 8.48526 10.1183 9.36051 11.5519Z" fill="#251E12"/>
</svg>
