<svg width="25" height="26" viewBox="0 0 25 26" fill="none" xmlns="http://www.w3.org/2000/svg">
<path d="M16.3211 8.99156C16.3211 10.0888 15.854 11.0769 15.1079 11.7679L17.0305 13.125V15.6119H15.1483C15.2391 16.7647 15.9787 17.9184 16.9358 18.9247C17.9515 19.9926 19.1735 20.8539 19.9851 21.3177L20.1042 21.3858V25.0696H5.20837V21.3858L5.32751 21.3177C6.13906 20.8539 7.36108 19.9926 8.37679 18.9247C9.33387 17.9184 10.0735 16.7647 10.1643 15.6119H8.28212V13.125L10.0727 11.8611C9.26592 11.1673 8.755 10.1391 8.755 8.99156C8.755 6.90223 10.4487 5.2085 12.5381 5.2085C14.6274 5.2085 16.3211 6.90223 16.3211 8.99156Z" fill="#F8F1C1"/>
</svg>
