<svg width="25" height="26" viewBox="0 0 25 26" fill="none" xmlns="http://www.w3.org/2000/svg">
<path fill-rule="evenodd" clip-rule="evenodd" d="M14.74 7.14971L11.2893 3.125C10.7898 4.07329 10.3055 5.74695 11.0017 6.95516C10.6638 6.98524 10.3409 7.0424 10.0911 7.14265C8.49744 7.78219 6.74881 9.4345 5.88937 12.8723C5.64051 13.8677 5.1926 14.3444 4.66025 14.911C4.15809 15.4454 3.5808 16.0598 3.02456 17.265C1.87863 19.7478 4.97122 22.2307 7.22628 19.9756C8.49411 18.7078 9.60231 18.1844 10.5327 17.745C11.8719 17.1125 12.8427 16.654 13.3911 14.4002C13.652 15.4515 13.5477 17.9326 11.0429 19.4464C8.53815 20.9603 8.01632 24.1493 8.06851 25.0955H22.3143C22.3143 16.1126 21.125 8.35152 14.74 7.14971Z" fill="#F8F1C1"/>
</svg>
