<svg width="25" height="25" viewBox="0 0 25 25" fill="none" xmlns="http://www.w3.org/2000/svg">
<path fill-rule="evenodd" clip-rule="evenodd" d="M11.1893 2.77783H13.4808L13.5405 4.68748H15.7724V6.97905H13.6121L13.7171 9.57349C13.7589 9.52416 13.8021 9.47579 13.8465 9.42855C15.933 7.21092 19.0267 6.03081 21.3104 7.93388C23.602 9.84352 23.602 14.2357 20.4467 16.776C18.6594 18.215 17.0585 19.6022 17.1374 21.6311L20.3477 22.0653V24.9297H4.32237V22.0653L7.53272 21.6311C7.6116 19.6022 6.01068 18.215 4.22335 16.776C1.06813 14.2357 1.06813 9.84352 3.3597 7.93388C5.64339 6.03081 8.73703 7.21092 10.8236 9.42855C10.868 9.47579 10.9111 9.52416 10.953 9.57349L11.058 6.97905H8.89768V4.68748H11.1296L11.1893 2.77783ZM9.0306 11.5519C10.431 13.8458 10.6164 16.5273 10.6164 17.6934C9.91443 17.6947 7.2683 16.5305 5.86731 14.6194C4.8587 13.2435 4.5957 11.2022 5.46031 10.4097C6.32492 9.61724 8.15534 10.1183 9.0306 11.5519ZM15.6395 11.5519C14.2391 13.8458 14.0537 16.5273 14.0537 17.6934C14.7557 17.6947 17.4018 16.5305 18.8028 14.6194C19.8114 13.2435 20.0744 11.2022 19.2098 10.4097C18.3452 9.61724 16.5147 10.1183 15.6395 11.5519Z" fill="#F8F1C1"/>
</svg>
