<svg width="25" height="25" viewBox="0 0 25 25" fill="none" xmlns="http://www.w3.org/2000/svg">
<path d="M13.2299 15.3337H11.702C11.702 12.5281 12.5529 9.72731 14.4354 7.67716C14.7304 7.27562 14.9047 6.77987 14.9047 6.24341C14.9047 4.90463 13.8194 3.81934 12.4806 3.81934C11.1418 3.81934 10.0565 4.90463 10.0565 6.24341C10.0565 6.90392 10.3207 7.50274 10.7492 7.93996C9.23494 9.01945 6.42041 11.913 6.42041 15.5357C6.42041 19.1917 9.28681 20.6718 10.7905 20.9756L5.20837 21.9632V24.828L19.7528 24.828V21.9632L14.0383 20.9609C15.559 20.6262 18.3388 19.136 18.3388 15.5357C18.3388 13.1783 17.2406 11.0769 15.9037 9.54897C14.4354 10.6949 13.2299 13.3687 13.2299 15.3337Z" fill="#F8F1C1"/>
</svg>
